<svg width="18" height="16" viewBox="0 0 18 16" fill="none" xmlns="http://www.w3.org/2000/svg">
  <path fill-rule="evenodd" clip-rule="evenodd" d="M0 14.75C0 14.3358 0.335786 14 0.75 14H17.25C17.6642 14 18 14.3358 18 14.75C18 15.1642 17.6642 15.5 17.25 15.5H0.75C0.335786 15.5 0 15.1642 0 14.75Z" fill="#FF0008"/>
  <path fill-rule="evenodd" clip-rule="evenodd" d="M8.78125 0.5C9.19546 0.5 9.53125 0.835786 9.53125 1.25V10.9643C9.53125 11.3785 9.19546 11.7143 8.78125 11.7143C8.36704 11.7143 8.03125 11.3785 8.03125 10.9643V1.25C8.03125 0.835786 8.36704 0.5 8.78125 0.5Z" fill="#FF0008"/>
  <path fill-rule="evenodd" clip-rule="evenodd" d="M2.99965 7.27661C3.24818 6.94524 3.71828 6.87808 4.04965 7.12661L8.78061 10.6748L13.5116 7.12661C13.8429 6.87808 14.313 6.94524 14.5616 7.27661C14.8101 7.60798 14.7429 8.07808 14.4116 8.32661L9.23061 12.2123C8.96394 12.4123 8.59727 12.4123 8.33061 12.2123L3.14965 8.32661C2.81828 8.07808 2.75113 7.60798 2.99965 7.27661Z" fill="#FF0008"/>
  </svg>
  