<svg width="18" height="18" viewBox="0 0 18 18" fill="none" xmlns="http://www.w3.org/2000/svg">
<path fill-rule="evenodd" clip-rule="evenodd" d="M0.75 5.7882C0.75 4.99962 1.38927 4.36035 2.17785 4.36035H16.4564C17.2449 4.36035 17.8842 4.99962 17.8842 5.7882V7.92998C17.8842 8.71856 17.2449 9.35783 16.4564 9.35783H2.17785C1.38927 9.35783 0.75 8.71856 0.75 7.92998V5.7882ZM16.4564 5.7882H2.17785V7.92998H16.4564V5.7882Z" fill="#434343"/>
<path fill-rule="evenodd" clip-rule="evenodd" d="M2.17969 7.92969H16.4582V15.7035C16.4582 16.9302 15.4993 17.9246 14.3164 17.9246H4.32146C3.13859 17.9246 2.17969 16.9302 2.17969 15.7035V7.92969ZM3.60754 9.41042V15.7035C3.60754 16.1124 3.92717 16.4439 4.32146 16.4439H14.3164C14.7107 16.4439 15.0303 16.1124 15.0303 15.7035V9.41042H3.60754Z" fill="#434343"/>
<path fill-rule="evenodd" clip-rule="evenodd" d="M7.29136 2.25559C6.68668 1.58239 5.97731 1.31637 5.20137 1.65075C4.65488 1.88625 4.39279 2.32429 4.33177 2.89725C4.26749 3.50083 4.44102 4.21497 4.76979 4.80472L3.52265 5.49999C3.07886 4.70393 2.81075 3.69624 2.91195 2.74604C3.01641 1.76523 3.52691 0.817548 4.63629 0.339475C6.15877 -0.316618 7.49115 0.341261 8.35362 1.30146C9.19583 2.23912 9.71625 3.57747 9.71624 4.69046L8.28839 4.69044C8.2884 3.9559 7.91629 2.95134 7.29136 2.25559Z" fill="#434343"/>
<path fill-rule="evenodd" clip-rule="evenodd" d="M11.2672 2.25559C11.8719 1.58239 12.5813 1.31637 13.3572 1.65075C13.9037 1.88625 14.1658 2.32429 14.2268 2.89725C14.2911 3.50083 14.1176 4.21497 13.7888 4.80472L15.0359 5.49999C15.4797 4.70393 15.7478 3.69624 15.6466 2.74604C15.5422 1.76523 15.0317 0.817548 13.9223 0.339475C12.3998 -0.316618 11.0674 0.341261 10.205 1.30146C9.36276 2.23912 8.84234 3.57747 8.84236 4.69046L10.2702 4.69044C10.2702 3.95589 10.6423 2.95134 11.2672 2.25559Z" fill="#434343"/>
</svg>
