<svg width="78" height="78" viewBox="0 0 78 78" fill="none" xmlns="http://www.w3.org/2000/svg">
<g filter="url(#filter0_d_2035_2621)">
<circle cx="39" cy="35" r="25" fill="#FAFAFA"/>
</g>
<path fill-rule="evenodd" clip-rule="evenodd" d="M30 41.25C30 40.8358 30.3358 40.5 30.75 40.5H47.25C47.6642 40.5 48 40.8358 48 41.25C48 41.6642 47.6642 42 47.25 42H30.75C30.3358 42 30 41.6642 30 41.25Z" fill="#434343"/>
<path fill-rule="evenodd" clip-rule="evenodd" d="M38.7803 25.5C39.1945 25.5 39.5303 25.8358 39.5303 26.25V37.4643C39.5303 37.8785 39.1945 38.2143 38.7803 38.2143C38.3661 38.2143 38.0303 37.8785 38.0303 37.4643V26.25C38.0303 25.8358 38.3661 25.5 38.7803 25.5Z" fill="#434343"/>
<path fill-rule="evenodd" clip-rule="evenodd" d="M32.9997 33.7761C33.2482 33.4447 33.7183 33.3776 34.0497 33.6261L38.7806 37.1743L43.5116 33.6261C43.8429 33.3776 44.313 33.4447 44.5616 33.7761C44.8101 34.1075 44.7429 34.5776 44.4116 34.8261L39.2306 38.7118C38.9639 38.9118 38.5973 38.9118 38.3306 38.7118L33.1497 34.8261C32.8183 34.5776 32.7511 34.1075 32.9997 33.7761Z" fill="#434343"/>
<defs>
<filter id="filter0_d_2035_2621" x="0" y="0" width="78" height="78" filterUnits="userSpaceOnUse" color-interpolation-filters="sRGB">
<feFlood flood-opacity="0" result="BackgroundImageFix"/>
<feColorMatrix in="SourceAlpha" type="matrix" values="0 0 0 0 0 0 0 0 0 0 0 0 0 0 0 0 0 0 127 0" result="hardAlpha"/>
<feOffset dy="4"/>
<feGaussianBlur stdDeviation="7"/>
<feComposite in2="hardAlpha" operator="out"/>
<feColorMatrix type="matrix" values="0 0 0 0 0 0 0 0 0 0 0 0 0 0 0 0 0 0 0.12 0"/>
<feBlend mode="normal" in2="BackgroundImageFix" result="effect1_dropShadow_2035_2621"/>
<feBlend mode="normal" in="SourceGraphic" in2="effect1_dropShadow_2035_2621" result="shape"/>
</filter>
</defs>
</svg>
