<svg width="19" height="19" viewBox="0 0 19 19" fill="none" xmlns="http://www.w3.org/2000/svg">
<path fill-rule="evenodd" clip-rule="evenodd" d="M8.09542 13.6971C11.1891 13.6971 13.6971 11.1891 13.6971 8.09542C13.6971 5.00172 11.1891 2.49377 8.09542 2.49377C5.00172 2.49377 2.49377 5.00172 2.49377 8.09542C2.49377 11.1891 5.00172 13.6971 8.09542 13.6971ZM8.09542 15.1908C12.0141 15.1908 15.1908 12.0141 15.1908 8.09542C15.1908 4.17673 12.0141 1 8.09542 1C4.17673 1 1 4.17673 1 8.09542C1 12.0141 4.17673 15.1908 8.09542 15.1908Z" fill="#434343"/>
<path fill-rule="evenodd" clip-rule="evenodd" d="M0.962891 8.09517C0.962891 4.15585 4.15634 0.962402 8.09566 0.962402C12.035 0.962402 15.2284 4.15585 15.2284 8.09517C15.2284 12.0345 12.035 15.2279 8.09566 15.2279C4.15634 15.2279 0.962891 12.0345 0.962891 8.09517ZM8.09566 1.03709C4.19759 1.03709 1.03758 4.1971 1.03758 8.09517C1.03758 11.9932 4.19759 15.1532 8.09566 15.1532C11.9937 15.1532 15.1537 11.9932 15.1537 8.09517C15.1537 4.1971 11.9937 1.03709 8.09566 1.03709ZM2.45666 8.09517C2.45666 4.98084 4.98133 2.45618 8.09566 2.45618C11.21 2.45618 13.7347 4.98084 13.7347 8.09517C13.7347 11.2095 11.21 13.7342 8.09566 13.7342C4.98133 13.7342 2.45666 11.2095 2.45666 8.09517ZM8.09566 2.53086C5.02258 2.53086 2.53135 5.02209 2.53135 8.09517C2.53135 11.1683 5.02258 13.6595 8.09566 13.6595C11.1687 13.6595 13.66 11.1683 13.66 8.09517C13.66 5.02209 11.1687 2.53086 8.09566 2.53086Z" fill="#434343"/>
<path fill-rule="evenodd" clip-rule="evenodd" d="M12.0488 12.0483C12.3405 11.7567 12.8134 11.7567 13.1051 12.0483L18.7067 17.65C18.9984 17.9417 18.9984 18.4146 18.7067 18.7063C18.4151 18.9979 17.9422 18.9979 17.6505 18.7063L12.0488 13.1046C11.7572 12.8129 11.7572 12.34 12.0488 12.0483Z" fill="#434343"/>
<path fill-rule="evenodd" clip-rule="evenodd" d="M13.0789 12.075C12.8018 11.7979 12.3526 11.7979 12.0755 12.075C11.7984 12.3521 11.7984 12.8013 12.0755 13.0784L17.6771 18.6801C17.9542 18.9572 18.4035 18.9572 18.6806 18.6801C18.9577 18.403 18.9577 17.9537 18.6806 17.6766L13.0789 12.075ZM12.0227 12.0222C12.3289 11.7159 12.8255 11.7159 13.1317 12.0222L18.7334 17.6238C19.0396 17.9301 19.0396 18.4266 18.7334 18.7329C18.4271 19.0392 17.9306 19.0392 17.6243 18.7329L12.0227 13.1312C11.7164 12.825 11.7164 12.3284 12.0227 12.0222Z" fill="#434343"/>
</svg>
