<svg width="20" height="20" viewBox="0 0 20 20" fill="none" xmlns="http://www.w3.org/2000/svg">
<path fill-rule="evenodd" clip-rule="evenodd" d="M1.5157 18.4845C1.12518 18.0939 1.12518 17.4608 1.5157 17.0702L17.072 1.51389C17.4626 1.12336 18.0957 1.12336 18.4863 1.51389C18.8768 1.90441 18.8768 2.53758 18.4863 2.9281L2.92991 18.4845C2.53939 18.875 1.90623 18.875 1.5157 18.4845Z" fill="#434343"/>
<path fill-rule="evenodd" clip-rule="evenodd" d="M1.51555 1.51375C1.90607 1.12322 2.53924 1.12322 2.92976 1.51375L18.4861 17.0701C18.8766 17.4606 18.8766 18.0938 18.4861 18.4843C18.0956 18.8748 17.4624 18.8748 17.0719 18.4843L1.51555 2.92796C1.12503 2.53744 1.12503 1.90427 1.51555 1.51375Z" fill="#434343"/>
</svg>
