<svg width="40" height="40" viewBox="0 0 40 40" fill="none" xmlns="http://www.w3.org/2000/svg">
<path fill-rule="evenodd" clip-rule="evenodd" d="M5 10.834C5 10.1436 5.55964 9.58398 6.25 9.58398H33.75C34.4404 9.58398 35 10.1436 35 10.834C35 11.5243 34.4404 12.084 33.75 12.084H6.25C5.55964 12.084 5 11.5243 5 10.834Z" fill="#434343"/>
<path fill-rule="evenodd" clip-rule="evenodd" d="M5 20C5 19.3096 5.55964 18.75 6.25 18.75H33.75C34.4404 18.75 35 19.3096 35 20C35 20.6904 34.4404 21.25 33.75 21.25H6.25C5.55964 21.25 5 20.6904 5 20Z" fill="#434343"/>
<path fill-rule="evenodd" clip-rule="evenodd" d="M5 29.168C5 28.4776 5.55964 27.918 6.25 27.918H33.75C34.4404 27.918 35 28.4776 35 29.168C35 29.8583 34.4404 30.418 33.75 30.418H6.25C5.55964 30.418 5 29.8583 5 29.168Z" fill="#434343"/>
</svg>
