<svg width="70" height="70" viewBox="0 0 70 70" fill="none" xmlns="http://www.w3.org/2000/svg">
<path d="M16.9163 8.45938V16.9175H8.45813H0V18.0841V19.2508H1.31247H2.62494V20.4174V21.5841H3.58741C4.84155 21.5841 4.95821 21.7007 4.95821 23.1007V24.209H7.29149H9.62477V22.8965V21.5841H11.958H14.2913V20.4174V19.2508H15.6038H16.9163V20.4174V21.5841H18.0829H19.2495V17.9383V14.2926H20.4162H21.5828V13.1259V11.9593H24.0619H26.541V10.9968C26.541 10.3698 26.4681 9.97601 26.3369 9.83018C26.1619 9.66977 25.4765 9.62602 22.6911 9.62602H19.2495V5.98028V2.33454H20.4162H21.5828V1.1679V0.00126648H19.2495H16.9163V8.45938Z" fill="white"/>
<path d="M26.5391 2.33373V4.66699H27.7057H28.8723V3.50036V2.33373H31.3514H33.8305V1.16709V0.000461578H30.1848H26.5391V2.33373Z" fill="white"/>
<path d="M41.127 1.16734V2.33398H42.2936H43.4602V1.16734V0.000700474H42.2936H41.127V1.16734Z" fill="white"/>
<path d="M45.7905 1.31327V2.62573H44.6239H43.4572V3.79237V4.95901H42.3489C40.949 4.95901 40.8323 4.84235 40.8323 3.58821V2.62573H38.499H36.1658V3.79237V4.95901H34.9991H33.8325V6.12565V7.29228H32.6659H31.4992V6.12565V4.95901H30.3326H29.1659V6.12565V7.29228H30.3326H31.4992V9.62556V11.9588H30.3326H29.1659V13.1255V14.2921H30.1284C30.7555 14.2921 31.1492 14.365 31.2951 14.4963C31.4555 14.6567 31.4992 15.2108 31.4992 16.9754V19.2503H30.3326H29.1659V20.417V21.5836H31.4992H33.8325V22.8961V24.2085H34.9991H36.1658V22.8961V21.5836H37.3324H38.499V22.8961V24.2085H39.6657H40.8323V21.7294V19.2503H43.3114H45.7905V18.0837V16.917H46.9572H48.1238V15.8087C48.1238 14.3796 48.2113 14.2921 49.6404 14.2921H50.7487V16.7712V19.2503H49.5821H48.4155V20.417V21.5836H49.5821H50.7487V20.417V19.2503H53.082H55.4153V20.417V21.5836H57.8944H60.3735V20.417V19.2503H64.0192H67.665V21.7294V24.2085H65.1859H62.7068V23.0419V21.8752H61.5401H60.3735V23.0419V24.2085H57.8944H55.4153V23.0419V21.8752H54.2486H53.082V24.2085V26.5418H55.5611H58.0402V29.0209V31.5H56.7277H55.4153V34.9999V38.4998H53.082H50.7487V36.1665V33.8333H51.7112C53.082 33.8333 53.082 33.8333 53.082 31.2958V29.1667H51.9154H50.7487V31.5V33.8333H48.2696H45.7905V31.3542V28.8751H46.9572H48.1238V26.5418V24.2085H45.7905H43.4572V25.3752V26.5418H42.2906H41.124V27.7084V28.8751H42.2906H43.4572V30.1875V31.5H42.2906H41.124V32.6666V33.8333H39.8115H38.499V34.9999V36.1665H37.3324H36.1658V32.5208V28.8751H37.3324H38.499V27.7084V26.5418H36.1658H33.8325V29.0209V31.5H31.4992H29.1659V34.9999V38.4998H27.8535H26.541V34.9999V31.5H27.7076H28.8743V27.8543V24.2085H27.7076H26.541V23.0419V21.8752H25.3744H24.2077V23.0419V24.2085H23.0411H21.8745V25.3752V26.5418H20.562H19.2495V25.3752V24.2085H20.4162H21.5828V23.0419V21.8752H20.4162H19.2495V23.0419V24.2085H18.0829H16.9162V23.0419V21.8752H15.7496H14.583V23.0419V24.2085H15.7496H16.9162V25.3752V26.5418H15.6038H14.2913V25.3752V24.2085H13.1247H11.958V25.3752V26.5418H10.7914H9.62476V27.8543V29.1667H8.45812H7.29148V31.5V33.8333H6.12485H4.95821V34.9999V36.1665H2.4791H0V38.4998V40.8331H1.16664H2.33328V39.6665V38.4998H4.81238H7.29148V39.8123V41.1248H6.12485H4.95821V43.458V45.7913H3.79157H2.62493V48.2704V50.7495H1.31247H0V51.9161V53.0828H8.45812H16.9162V61.5409V69.999H18.0829H19.2495V68.6866V67.3741H24.0619H28.8743V66.3533V65.3325H26.541H24.2077V64.02V62.7075H25.3744H26.541V61.5409V60.3743H28.8159C30.5805 60.3743 31.1346 60.3305 31.2951 60.1701C31.4263 60.0243 31.4992 59.6305 31.4992 59.0035V58.041H32.4617C33.7158 58.041 33.8325 57.9243 33.8325 56.5244V55.4161H34.9991H36.1658V54.2494V53.0828H34.9991H33.8325V50.7495V48.4162H32.6659H31.4992V53.2286V58.041H29.0201H26.541V59.2076V60.3743H25.3744H24.2077V61.5409V62.7075H22.8953H21.5828V60.3743V58.041H22.8953H24.2077V56.7285V55.4161H22.8953H21.5828V54.2494V53.0828H20.4162H19.2495V51.9161V50.7495H20.4162H21.5828V49.5829V48.4162H20.4162H19.2495V49.5829V50.7495H15.6038H11.958V49.5829V48.4162H10.7914H9.62476V49.5829V50.7495H8.45812H7.29148V49.437V48.1246H8.45812H9.62476V46.9579V45.7913H10.7914H11.958V46.9579V48.1246H14.4371H16.9162V46.9579V45.7913H18.0829H19.2495V44.6247V43.458H20.4162H21.5828V42.3497C21.5828 40.9206 21.6703 40.8331 23.0994 40.8331H24.2077V39.6665V38.4998H25.3744H26.541V39.6665V40.8331H27.6493C29.0784 40.8331 29.1659 40.9206 29.1659 42.3497V43.458H30.3326H31.4992V44.6247V45.7913H30.1867H28.8743V44.6247V43.458H27.7076H26.541V42.2914V41.1248H25.3744H24.2077V42.2914V43.458H23.0411H21.8745V44.6247V45.7913H23.0411H24.2077V44.6247V43.458H25.3744H26.541V45.7913V48.1246H29.0201H31.4992V46.9579V45.7913H32.6659H33.8325V46.9579V48.1246H34.9991H36.1658V45.7913V43.458H33.8325H31.4992V42.1456V40.8331H34.9991H38.499V38.4998V36.1665H39.8115H41.124V37.3332V38.4998H42.2906H43.4572V39.6665V40.8331H47.103H50.7487V42.1456V43.458H49.5821H48.4155V44.6247V45.7913H47.103H45.7905V46.9579V48.1246H49.4363H53.082V46.9579V45.7913H54.2486H55.4153V46.9579V48.1246H56.7277H58.0402V46.9579V45.7913H56.7277H55.4153V44.6247V43.458H54.2486H53.082V42.1456V40.8331H54.2486H55.4153V39.6665V38.4998H56.7277H58.0402V39.6665V40.8331H59.2069H60.3735V39.8706C60.3735 38.6311 60.2422 38.4998 59.0027 38.4998H58.0402V34.9999V31.5H59.2069H60.3735V32.6666V33.8333H62.7068H65.04V32.6666V31.5H66.2067H67.3733V30.1875V28.8751H68.6858H69.9983V22.8961V16.917H61.5401H53.082V8.45892V0.000801086H49.4363H45.7905V1.31327ZM50.7487 3.64655V4.95901H49.5821H48.4155V6.12565V7.29228H49.5821H50.7487V9.62556V11.9588H45.9364H41.124V14.4379V16.917H39.8115H38.499V18.0837V19.2503H36.1658H33.8325V16.7712V14.2921H34.9991H36.1658V15.6046V16.917H37.3324H38.499V12.1047V7.29228H40.9781H43.4572V8.45892V9.62556H45.7905H48.1238V8.45892V7.29228H46.9572H45.7905V5.97982V4.66735H46.9572H48.1238V3.50072V2.33408H49.4363H50.7487V3.64655ZM45.7905 15.6046V16.917H44.6239H43.4572V15.6046V14.2921H44.6239H45.7905V15.6046ZM26.541 27.8543V29.1667H25.3744H24.2077V27.8543V26.5418H25.3744H26.541V27.8543ZM62.7068 27.8543V29.1667H61.5401H60.3735V27.8543V26.5418H61.5401H62.7068V27.8543ZM16.9162 30.1875V31.5H15.6038H14.2913V30.4063C14.2913 29.7209 14.3642 29.2251 14.4809 29.0938C14.5976 28.948 14.9913 28.8897 15.7934 28.8751H16.9162V30.1875ZM21.8745 30.1875V31.5H23.0411H24.2077V32.6666V33.8333H22.8953H21.5828V32.6666V31.5H20.4162H19.2495V30.1875V28.8751H20.562H21.8745V30.1875ZM9.62476 34.9999V36.1665H10.7914H11.958V34.9999V33.8333H14.4371H16.9162V34.9999V36.1665H20.562H24.2077V37.3332V38.4998H21.7286H19.2495V40.9789V43.458H18.0829H16.9162V44.6247V45.7913H15.6038H14.2913V44.6247V43.458H11.958H9.62476V44.6247V45.7913H8.45812H7.29148V44.6247V43.458H8.45812H9.62476V40.9789V38.4998H8.45812H7.29148V36.1665V33.8333H8.45812H9.62476V34.9999ZM45.7905 34.9999V36.1665H47.103H48.4155V37.3332V38.4998H45.9364H43.4572V36.1665V33.8333H44.6239H45.7905V34.9999Z" fill="white"/>
<path d="M12.1486 36.3855C12.0319 36.5022 11.959 36.9834 11.959 37.5521V38.5H14.4381H16.9172V37.3334V36.1668H14.6277C12.8194 36.1813 12.2798 36.2251 12.1486 36.3855Z" fill="white"/>
<path d="M14.582 42.2914V43.458H15.7487H16.9153V42.2914V41.1247H15.7487H14.582V42.2914Z" fill="white"/>
<path d="M2.62305 8.4588V14.292H8.45623H14.2894V8.4588V2.62561H8.45623H2.62305V8.4588ZM11.9561 8.31297V11.9587H8.3104H4.66466V8.31297V4.66723H8.3104H11.9561V8.31297Z" fill="white"/>
<path d="M55.416 8.45978V14.293H61.395H67.374V8.45978V2.62659H61.395H55.416V8.45978ZM65.3324 8.31395V11.9597H61.6867H58.0409V8.31395V4.6682H61.6867H65.3324V8.31395Z" fill="white"/>
<path d="M24.207 6.12635V7.29297H25.3737H26.5403V6.12635V4.95972H25.3737H24.207V6.12635Z" fill="white"/>
<path d="M21.875 15.7504V16.917H23.0416H24.2083V15.7504V14.5837H23.0416H21.875V15.7504Z" fill="white"/>
<path d="M26.5391 16.9167V19.25H27.7057H28.8724V16.9167V14.5835H27.7057H26.5391V16.9167Z" fill="white"/>
<path d="M21.875 20.4173V21.584H23.0416H24.2083V20.4173V19.2507H23.0416H21.875V20.4173Z" fill="white"/>
<path d="M0 23.0423V24.209H1.16665H2.33329V23.0423V21.8757H1.16665H0V23.0423Z" fill="white"/>
<path d="M2.62305 27.7084V28.875H3.64385H4.66465V27.7084V26.5418H3.64385H2.62305V27.7084Z" fill="white"/>
<path d="M0 30.3334V31.5H1.16665H2.33329V30.3334V29.1668H1.16665H0V30.3334Z" fill="white"/>
<path d="M38.5 30.1292C38.5 31.3688 38.6312 31.5 39.8708 31.5H40.8333V30.3334V29.1668H39.6666H38.5V30.1292Z" fill="white"/>
<path d="M2.62305 32.6664V33.833H3.64385H4.66465V32.6664V31.4997H3.64385H2.62305V32.6664Z" fill="white"/>
<path d="M65.334 37.3331V40.833H67.6673H70.0005V39.6664V38.4997H68.6881H67.3756V37.3331V36.1665H68.6881H70.0005V34.9998V33.8332H67.6673H65.334V37.3331Z" fill="white"/>
<path d="M60.373 37.3334V38.5H61.5397H62.7063V37.3334V36.1668H61.5397H60.373V37.3334Z" fill="white"/>
<path d="M38.4973 42.2914V43.458H39.8098H41.1223V44.6247V45.7913H39.8098H38.4973V50.6037V55.4161H37.5349C36.1641 55.4161 36.1641 55.4307 36.1641 57.8952C36.1641 60.3597 36.1641 60.3743 37.5349 60.3743H38.4973V62.7075V65.0408H39.6056C40.364 65.0408 40.7723 65.0992 40.9181 65.245C41.0785 65.4054 41.1223 65.9595 41.1223 67.7241V69.999H43.4555H45.7888V68.8324V67.6658H44.6222H43.4555V65.1866V62.7075H47.1013H50.747V61.5409V60.3743H47.1013H43.4555V59.2076V58.041H44.6222H45.7888V56.7285V55.4161H44.6222H43.4555V54.2494V53.0828H45.7888H48.1221V51.9162V50.7495H46.9555H45.7888V49.5829V48.4163H44.6222H43.4555V49.5829V50.7495H42.1431H40.8306V49.6412C40.8306 48.2121 40.9181 48.1246 42.3472 48.1246H43.4555V44.6247V41.1248H40.9764H38.4973V42.2914Z" fill="white"/>
<path d="M60.373 42.2909V43.4576H61.5397H62.7063V44.6242V45.7908H61.5397H60.373V48.2699V50.749H61.5397H62.7063V51.9157V53.0823H64.0188H65.3313V54.2489V55.4156H62.8522H60.373V56.728V58.0405H61.5397H62.7063V59.003C62.7063 60.2571 62.823 60.3738 64.223 60.3738H65.3313V61.5404V62.707H66.3521H67.3729V60.3738V58.0405H68.6853H69.9978V54.3948V50.749H66.3521H62.7063V49.4366V48.1241H66.3521H69.9978V46.9575V45.7908H68.6853H67.3729V44.6242V43.4576H65.0396H62.7063V42.2909V41.1243H61.5397H60.373V42.2909Z" fill="white"/>
<path d="M24.207 50.7497V53.083H25.3737H26.5403V50.7497V48.4165H25.3737H24.207V50.7497Z" fill="white"/>
<path d="M50.748 54.3953V58.041H54.1896C56.975 58.041 57.6604 57.9973 57.8354 57.8369C57.9958 57.6619 58.0395 56.9765 58.0395 54.1911V50.7495H54.3938H50.748V54.3953ZM55.4146 54.2494V55.4161H54.248H53.0813V54.2494V53.0828H54.248H55.4146V54.2494Z" fill="white"/>
<path d="M2.62305 61.395V67.374H8.45623H14.2894V61.395V55.416H8.45623H2.62305V61.395ZM11.9561 61.6867V65.3324H8.3104H4.66466V61.6867V58.0409H8.3104H11.9561V61.6867Z" fill="white"/>
<path d="M31.4993 61.5409V62.7075H32.6659H33.8326V64.02V65.3325H32.6659H31.4993V66.4991V67.6658H30.3327H29.166V68.8324V69.999H33.8326H38.4991V67.6658V65.3325H37.3325H36.1658V64.02V62.7075H34.9992H33.8326V61.5409V60.3743H32.6659H31.4993V61.5409Z" fill="white"/>
<path d="M53.0859 61.5404V62.707H54.2526H55.4192V61.5404V60.3738H54.2526H53.0859V61.5404Z" fill="white"/>
<path d="M58.0391 61.5404V62.707H59.2057H60.3724V61.5404V60.3738H59.2057H58.0391V61.5404Z" fill="white"/>
<path d="M29.166 63.8744V65.041H30.3327H31.4993V64.0786C31.4993 62.839 31.3681 62.7078 30.1285 62.7078H29.166V63.8744Z" fill="white"/>
<path d="M67.666 63.8744V65.041H68.8327H69.9993V63.8744V62.7078H68.8327H67.666V63.8744Z" fill="white"/>
<path d="M45.791 66.3533V67.3741H46.8993C48.3285 67.3741 48.4159 67.4616 48.4159 68.8907V69.999H50.7492H53.0825V68.8324V67.6658H51.9159H50.7492V66.4991V65.3325H48.2701H45.791V66.3533Z" fill="white"/>
<path d="M65.334 67.6658V69.999H67.6673H70.0005V68.8324V67.6658H68.8922C67.4923 67.6658 67.3756 67.5491 67.3756 66.295V65.3325H66.3548H65.334V67.6658Z" fill="white"/>
<path d="M55.416 68.8324V69.999H56.7285H58.041V68.8324V67.6657H56.7285H55.416V68.8324Z" fill="white"/>
<path d="M60.373 68.8324V69.999H61.5397H62.7063V68.8324V67.6657H61.5397H60.373V68.8324Z" fill="white"/>
</svg>
