<svg width="78" height="78" viewBox="0 0 78 78" fill="none" xmlns="http://www.w3.org/2000/svg">
<g filter="url(#filter0_d_2035_2615)">
<circle cx="39" cy="35" r="25" fill="#FAFAFA"/>
</g>
<path fill-rule="evenodd" clip-rule="evenodd" d="M40.7197 33.2803C40.4268 32.9874 40.4268 32.5126 40.7197 32.2197L45.4392 27.5001C45.1057 27.5004 44.7498 27.5009 44.3938 27.5017C43.6865 27.5033 42.9799 27.5056 42.45 27.5076L41.5676 27.5111L41.564 26.7611L41.5608 26.0111L42.4445 26.0076C42.9747 26.0056 43.6822 26.0033 44.3905 26.0017C45.0985 26.0002 45.8084 25.9994 46.3433 26.0006C46.6104 26.0012 46.8358 26.0022 46.9961 26.004C47.0755 26.0048 47.1426 26.0059 47.1919 26.0073C47.2154 26.0079 47.2416 26.0088 47.2653 26.0102C47.2754 26.0108 47.2969 26.0122 47.3218 26.0152C47.3322 26.0164 47.3605 26.0198 47.3954 26.0274C47.4118 26.0309 47.4474 26.0391 47.4908 26.0546L47.493 26.0553C47.5165 26.0636 47.6483 26.1098 47.7693 26.2308C47.8903 26.3518 47.9365 26.4836 47.9447 26.5071L47.9455 26.5092C47.961 26.5527 47.9691 26.5882 47.9726 26.6047C47.9802 26.6396 47.9836 26.6678 47.9849 26.6783C47.9878 26.7031 47.9892 26.7246 47.9898 26.7347C47.9912 26.7584 47.9921 26.7846 47.9927 26.8081C47.9941 26.8574 47.9952 26.9245 47.996 27.0039C47.9978 27.1642 47.9988 27.3896 47.9994 27.6567C48.0006 28.1916 47.9998 28.9015 47.9983 29.6095C47.9967 30.3178 47.9944 31.0253 47.9924 31.5555L47.9889 32.439L47.2389 32.436L46.4889 32.4326L46.4924 31.55C46.4944 31.0202 46.4967 30.3135 46.4983 29.6062C46.4991 29.2502 46.4996 28.8943 46.4999 28.5608L41.7803 33.2803C41.4874 33.5732 41.0126 33.5732 40.7197 33.2803ZM47.2389 32.436L46.4889 32.4326C46.4871 32.8468 46.8214 33.1841 47.2356 33.186C47.6498 33.1878 47.9871 32.8532 47.9889 32.439L47.2389 32.436ZM41.564 26.7611L41.5608 26.0111C41.1466 26.0129 40.8122 26.3502 40.814 26.7644C40.8159 27.1786 41.1534 27.5129 41.5676 27.5111L41.564 26.7611Z" fill="#434343"/>
<path fill-rule="evenodd" clip-rule="evenodd" d="M37.2803 36.7197C37.5732 37.0126 37.5732 37.4874 37.2803 37.7803L32.5608 42.4999C32.8943 42.4996 33.2502 42.4991 33.6062 42.4983C34.3135 42.4967 35.0201 42.4944 35.55 42.4924L36.4324 42.4889L36.436 43.2389L36.4392 43.9889L35.5555 43.9924C35.0253 43.9944 34.3178 43.9967 33.6095 43.9983C32.9015 43.9998 32.1916 44.0006 31.6567 43.9994C31.3896 43.9988 31.1642 43.9978 31.0039 43.996C30.9245 43.9952 30.8574 43.9941 30.8081 43.9927C30.7846 43.9921 30.7584 43.9912 30.7347 43.9898C30.7246 43.9892 30.7031 43.9878 30.6782 43.9848C30.6678 43.9836 30.6395 43.9802 30.6046 43.9726C30.5882 43.9691 30.5526 43.9609 30.5092 43.9454L30.507 43.9447C30.4835 43.9364 30.3517 43.8902 30.2307 43.7692C30.1097 43.6482 30.0635 43.5164 30.0553 43.4929L30.0545 43.4908C30.039 43.4473 30.0309 43.4118 30.0274 43.3953C30.0198 43.3604 30.0164 43.3322 30.0151 43.3217C30.0122 43.2969 30.0108 43.2754 30.0102 43.2653C30.0088 43.2416 30.0079 43.2154 30.0073 43.1919C30.0059 43.1426 30.0048 43.0755 30.004 42.9961C30.0022 42.8358 30.0012 42.6104 30.0006 42.3433C29.9994 41.8084 30.0002 41.0985 30.0017 40.3905C30.0033 39.6822 30.0056 38.9747 30.0076 38.4445L30.0111 37.561L30.7611 37.564L31.5111 37.5674L31.5076 38.45C31.5056 38.9798 31.5033 39.6865 31.5017 40.3938C31.5009 40.7498 31.5004 41.1057 31.5001 41.4392L36.2197 36.7197C36.5126 36.4268 36.9874 36.4268 37.2803 36.7197ZM30.7611 37.564L31.5111 37.5674C31.5129 37.1532 31.1786 36.8159 30.7644 36.814C30.3502 36.8122 30.0129 37.1468 30.0111 37.561L30.7611 37.564ZM36.436 43.2389L36.4392 43.9889C36.8534 43.9871 37.1878 43.6498 37.186 43.2356C37.1841 42.8214 36.8466 42.4871 36.4324 42.4889L36.436 43.2389Z" fill="#434343"/>
<defs>
<filter id="filter0_d_2035_2615" x="0" y="0" width="78" height="78" filterUnits="userSpaceOnUse" color-interpolation-filters="sRGB">
<feFlood flood-opacity="0" result="BackgroundImageFix"/>
<feColorMatrix in="SourceAlpha" type="matrix" values="0 0 0 0 0 0 0 0 0 0 0 0 0 0 0 0 0 0 127 0" result="hardAlpha"/>
<feOffset dy="4"/>
<feGaussianBlur stdDeviation="7"/>
<feComposite in2="hardAlpha" operator="out"/>
<feColorMatrix type="matrix" values="0 0 0 0 0 0 0 0 0 0 0 0 0 0 0 0 0 0 0.12 0"/>
<feBlend mode="normal" in2="BackgroundImageFix" result="effect1_dropShadow_2035_2615"/>
<feBlend mode="normal" in="SourceGraphic" in2="effect1_dropShadow_2035_2615" result="shape"/>
</filter>
</defs>
</svg>
