<svg width="16" height="16" viewBox="0 0 16 16" fill="none" xmlns="http://www.w3.org/2000/svg">
  <path fill-rule="evenodd" clip-rule="evenodd" d="M7.9974 0.664062C3.94731 0.664062 0.664062 3.94731 0.664062 7.9974C0.664062 12.0475 3.94731 15.3307 7.9974 15.3307C12.0475 15.3307 15.3307 12.0475 15.3307 7.9974C15.3307 3.94731 12.0475 0.664062 7.9974 0.664062ZM11.4688 6.4688C11.7292 6.20845 11.7292 5.78634 11.4688 5.52599C11.2085 5.26564 10.7863 5.26564 10.526 5.52599L6.9974 9.05459L5.4688 7.52599C5.20845 7.26564 4.78634 7.26564 4.52599 7.52599C4.26564 7.78634 4.26564 8.20845 4.52599 8.4688L6.52599 10.4688C6.78634 10.7292 7.20845 10.7292 7.4688 10.4688L11.4688 6.4688Z" fill="#19D3C5"/>
  </svg>
  